HIERARCHY
ROOT Hips
{
	OFFSET 0.000000 83.214638 0.000000
	CHANNELS 6 Xposition Yposition Zposition Xrotation Yrotation Zrotation
	JOINT Pelvis
	{
		OFFSET 0.000000 0.000000 0.000000
		CHANNELS 3 Xrotation Yrotation Zrotation
		JOINT LeftUpLeg
		{
			OFFSET 8.479700 -4.795502 -0.379100
			CHANNELS 3 Xrotation Yrotation Zrotation
			JOINT LeftLeg
			{
				OFFSET 0.024144 -32.555107 0.112900
				CHANNELS 3 Xrotation Yrotation Zrotation
				JOINT LeftFoot
				{
					OFFSET -0.024144 -32.638630 -3.012600
					CHANNELS 3 Xrotation Yrotation Zrotation
					JOINT LeftToeBase
					{
						OFFSET 0.970200 -13.225400 11.864200
						CHANNELS 3 Xrotation Yrotation Zrotation
						End Site
						{
							OFFSET 0.000000 12.319262 0.000000
						}
					}
					JOINT LFootTongue
					{
						OFFSET 1.142400 -1.059800 6.665200
						CHANNELS 3 Xrotation Yrotation Zrotation
						End Site
						{
							OFFSET 0.000000 12.319262 0.000000
						}
					}
				}
				JOINT LeftPantLeg
				{
					OFFSET 0.918482 -16.533964 -2.284700
					CHANNELS 3 Xrotation Yrotation Zrotation
					End Site
					{
						OFFSET 0.350399 24.744368 0.000000
					}
				}
			}
		}
		JOINT RightUpLeg
		{
			OFFSET -8.479700 -4.795502 -0.379100
			CHANNELS 3 Xrotation Yrotation Zrotation
			JOINT RightLeg
			{
				OFFSET -0.023144 -32.555092 0.112900
				CHANNELS 3 Xrotation Yrotation Zrotation
				JOINT RightFoot
				{
					OFFSET 0.023144 -32.638641 -3.012700
					CHANNELS 3 Xrotation Yrotation Zrotation
					JOINT RightToeBase
					{
						OFFSET -0.970200 -13.225400 11.864200
						CHANNELS 3 Xrotation Yrotation Zrotation
						End Site
						{
							OFFSET 0.000000 12.319244 0.000000
						}
					}
					JOINT RFootTongue
					{
						OFFSET -1.142200 -1.059800 6.665200
						CHANNELS 3 Xrotation Yrotation Zrotation
						End Site
						{
							OFFSET 0.000000 12.319243 0.000000
						}
					}
				}
				JOINT RightPantLeg
				{
					OFFSET -0.919482 -16.533978 -2.284800
					CHANNELS 3 Xrotation Yrotation Zrotation
					End Site
					{
						OFFSET -0.350400 24.744419 0.000000
					}
				}
			}
		}
	}
	JOINT Spine
	{
		OFFSET 0.000000 7.722000 1.166200
		CHANNELS 3 Xrotation Yrotation Zrotation
		JOINT Spine1
		{
			OFFSET 0.000000 12.024101 0.248800
			CHANNELS 3 Xrotation Yrotation Zrotation
			JOINT Spine2
			{
				OFFSET 0.000000 11.502998 -0.491200
				CHANNELS 3 Xrotation Yrotation Zrotation
				JOINT Neck
				{
					OFFSET 0.000000 18.430702 -3.123100
					CHANNELS 3 Xrotation Yrotation Zrotation
					JOINT Head
					{
						OFFSET 0.000000 9.051102 1.034000
						CHANNELS 3 Xrotation Yrotation Zrotation
						JOINT HairB
						{
							OFFSET 0.208400 24.786102 24.822300
							CHANNELS 3 Xrotation Yrotation Zrotation
							End Site
							{
								OFFSET 0.000000 32.263779 0.000000
							}
						}
						JOINT HairA
						{
							OFFSET -7.081100 24.428299 23.196600
							CHANNELS 3 Xrotation Yrotation Zrotation
							End Site
							{
								OFFSET 0.000000 32.263779 0.000000
							}
						}
						JOINT Hat
						{
							OFFSET 16.728800 15.048294 -15.439601
							CHANNELS 3 Xrotation Yrotation Zrotation
							End Site
							{
								OFFSET 0.000000 32.263779 0.000000
							}
						}
					}
				}
				JOINT LeftShoulder
				{
					OFFSET 6.197800 13.665199 -4.064700
					CHANNELS 3 Xrotation Yrotation Zrotation
					JOINT LeftArm
					{
						OFFSET 7.778100 -0.187103 -1.709300
						CHANNELS 3 Xrotation Yrotation Zrotation
						JOINT LeftForeArm
						{
							OFFSET 22.049376 0.000000 0.000000
							CHANNELS 3 Xrotation Yrotation Zrotation
							JOINT LeftHand
							{
								OFFSET 23.009392 0.000000 0.000000
								CHANNELS 3 Xrotation Yrotation Zrotation
								JOINT LeftHandThumb1
								{
									OFFSET 3.507191 -2.063065 3.133727
									CHANNELS 3 Xrotation Yrotation Zrotation
									JOINT LeftHandThumb2
									{
										OFFSET 3.101337 -1.790558 1.790558
										CHANNELS 3 Xrotation Yrotation Zrotation
										JOINT LeftHandThumb3
										{
											OFFSET 3.058640 -1.765907 1.765906
											CHANNELS 3 Xrotation Yrotation Zrotation
											End Site
											{
												OFFSET -0.415260 3.926476 -0.049563
											}
										}
									}
								}
								JOINT LeftHandIndex1
								{
									OFFSET 11.334419 -0.901459 3.706815
									CHANNELS 3 Xrotation Yrotation Zrotation
									JOINT LeftHandIndex2
									{
										OFFSET 3.283112 0.000000 0.000000
										CHANNELS 3 Xrotation Yrotation Zrotation
										JOINT LeftHandIndex3
										{
											OFFSET 3.323853 0.000000 0.000000
											CHANNELS 3 Xrotation Yrotation Zrotation
											End Site
											{
												OFFSET -1.135597 3.097809 0.402452
											}
										}
									}
								}
								JOINT LeftHandMiddle1
								{
									OFFSET 11.335861 0.000000 0.000000
									CHANNELS 3 Xrotation Yrotation Zrotation
									JOINT LeftHandMiddle2
									{
										OFFSET 3.410492 0.000000 0.000000
										CHANNELS 3 Xrotation Yrotation Zrotation
										JOINT LeftHandMiddle3
										{
											OFFSET 3.312172 0.000000 0.000000
											CHANNELS 3 Xrotation Yrotation Zrotation
											End Site
											{
												OFFSET -1.150200 3.080154 0.400270
											}
										}
									}
								}
								JOINT LeftHandRing1
								{
									OFFSET 11.514786 -0.013176 -3.003090
									CHANNELS 3 Xrotation Yrotation Zrotation
									JOINT LeftHandRing2
									{
										OFFSET 3.053307 0.000000 0.000000
										CHANNELS 3 Xrotation Yrotation Zrotation
										JOINT LeftHandRing3
										{
											OFFSET 3.295807 0.000000 0.000000
											CHANNELS 3 Xrotation Yrotation Zrotation
											End Site
											{
												OFFSET -1.281006 3.013344 0.375733
											}
										}
									}
								}
								JOINT LeftHandPinky1
								{
									OFFSET 10.518692 -0.960396 -5.730441
									CHANNELS 3 Xrotation Yrotation Zrotation
									JOINT LeftHandPinky2
									{
										OFFSET 2.861649 0.000000 0.000000
										CHANNELS 3 Xrotation Yrotation Zrotation
										JOINT LeftHandPinky3
										{
											OFFSET 2.863380 0.000000 0.000000
											CHANNELS 3 Xrotation Yrotation Zrotation
											End Site
											{
												OFFSET -0.843597 2.711159 0.369971
											}
										}
									}
								}
							}
							JOINT LSleeve
							{
								OFFSET 6.676277 -0.344902 -1.011730
								CHANNELS 3 Xrotation Yrotation Zrotation
								End Site
								{
									OFFSET 0.000000 14.885353 0.000000
								}
							}
						}
					}
				}
				JOINT RightShoulder
				{
					OFFSET -6.197800 13.665199 -4.064700
					CHANNELS 3 Xrotation Yrotation Zrotation
					JOINT RightArm
					{
						OFFSET -7.778100 -0.187103 -1.709300
						CHANNELS 3 Xrotation Yrotation Zrotation
						JOINT RightForeArm
						{
							OFFSET -22.049376 0.000000 0.000000
							CHANNELS 3 Xrotation Yrotation Zrotation
							JOINT RightHand
							{
								OFFSET -23.009392 0.000000 0.000000
								CHANNELS 3 Xrotation Yrotation Zrotation
								JOINT RightHandThumb1
								{
									OFFSET -3.507191 -2.063065 3.133727
									CHANNELS 3 Xrotation Yrotation Zrotation
									JOINT RightHandThumb2
									{
										OFFSET -3.101337 -1.790558 1.790558
										CHANNELS 3 Xrotation Yrotation Zrotation
										JOINT RightHandThumb3
										{
											OFFSET -3.058640 -1.765907 1.765906
											CHANNELS 3 Xrotation Yrotation Zrotation
											End Site
											{
												OFFSET 0.415260 3.926476 -0.049563
											}
										}
									}
								}
								JOINT RightHandIndex1
								{
									OFFSET -11.334419 -0.901459 3.706815
									CHANNELS 3 Xrotation Yrotation Zrotation
									JOINT RightHandIndex2
									{
										OFFSET -3.283112 0.000000 0.000000
										CHANNELS 3 Xrotation Yrotation Zrotation
										JOINT RightHandIndex3
										{
											OFFSET -3.323853 0.000000 0.000000
											CHANNELS 3 Xrotation Yrotation Zrotation
											End Site
											{
												OFFSET 1.135597 3.097809 0.402452
											}
										}
									}
								}
								JOINT RightHandMiddle1
								{
									OFFSET -11.335861 0.000000 0.000000
									CHANNELS 3 Xrotation Yrotation Zrotation
									JOINT RightHandMiddle2
									{
										OFFSET -3.410492 0.000000 0.000000
										CHANNELS 3 Xrotation Yrotation Zrotation
										JOINT RightHandMiddle3
										{
											OFFSET -3.312172 0.000000 0.000000
											CHANNELS 3 Xrotation Yrotation Zrotation
											End Site
											{
												OFFSET 1.150200 3.080154 0.400270
											}
										}
									}
								}
								JOINT RightHandRing1
								{
									OFFSET -11.514786 -0.013176 -3.003090
									CHANNELS 3 Xrotation Yrotation Zrotation
									JOINT RightHandRing2
									{
										OFFSET -3.053307 0.000000 0.000000
										CHANNELS 3 Xrotation Yrotation Zrotation
										JOINT RightHandRing3
										{
											OFFSET -3.295807 0.000000 0.000000
											CHANNELS 3 Xrotation Yrotation Zrotation
											End Site
											{
												OFFSET 1.281006 3.013344 0.375733
											}
										}
									}
								}
								JOINT RightHandPinky1
								{
									OFFSET -10.518692 -0.960396 -5.730441
									CHANNELS 3 Xrotation Yrotation Zrotation
									JOINT RightHandPinky2
									{
										OFFSET -2.861649 0.000000 0.000000
										CHANNELS 3 Xrotation Yrotation Zrotation
										JOINT RightHandPinky3
										{
											OFFSET -2.863380 0.000000 0.000000
											CHANNELS 3 Xrotation Yrotation Zrotation
											End Site
											{
												OFFSET 0.843597 2.711159 0.369971
											}
										}
									}
								}
							}
							JOINT RSleeve
							{
								OFFSET -6.676277 -0.344902 -1.011730
								CHANNELS 3 Xrotation Yrotation Zrotation
								End Site
								{
									OFFSET 0.000000 14.885353 0.000000
								}
							}
						}
					}
				}
				JOINT Backpack
				{
					OFFSET 0.000000 -2.471497 36.677502
					CHANNELS 3 Xrotation Yrotation Zrotation
					End Site
					{
						OFFSET 0.000000 20.427315 0.000000
					}
				}
				JOINT Hood
				{
					OFFSET 0.000000 18.754097 -10.431000
					CHANNELS 3 Xrotation Yrotation Zrotation
					JOINT Hood1
					{
						OFFSET 0.000000 -5.011002 -7.685901
						CHANNELS 3 Xrotation Yrotation Zrotation
						End Site
						{
							OFFSET 0.000000 9.175140 0.000000
						}
					}
				}
				JOINT LHoodieString
				{
					OFFSET 5.250500 16.397697 3.089900
					CHANNELS 3 Xrotation Yrotation Zrotation
					JOINT LHoodieString1
					{
						OFFSET 0.257700 -6.364304 3.694600
						CHANNELS 3 Xrotation Yrotation Zrotation
						JOINT LHoodieString2
						{
							OFFSET 0.000000 -9.643799 2.679100
							CHANNELS 3 Xrotation Yrotation Zrotation
							End Site
							{
								OFFSET 0.000000 10.009018 0.000000
							}
						}
					}
				}
				JOINT RHoodieString
				{
					OFFSET -5.250500 16.397697 3.089900
					CHANNELS 3 Xrotation Yrotation Zrotation
					JOINT RHoodieString1
					{
						OFFSET -0.257700 -6.364304 3.694600
						CHANNELS 3 Xrotation Yrotation Zrotation
						JOINT RHoodieString2
						{
							OFFSET 0.000000 -9.643799 2.679100
							CHANNELS 3 Xrotation Yrotation Zrotation
							End Site
							{
								OFFSET 0.000000 10.009018 0.000000
							}
						}
					}
				}
			}
			JOINT LBackpack_Strap
			{
				OFFSET 15.223200 -7.719803 -6.610900
				CHANNELS 3 Xrotation Yrotation Zrotation
				End Site
				{
					OFFSET 0.000000 16.040596 0.000000
				}
			}
			JOINT RBackpack_Strap
			{
				OFFSET -15.223000 -7.719803 -6.610900
				CHANNELS 3 Xrotation Yrotation Zrotation
				End Site
				{
					OFFSET 0.000000 16.040596 0.000000
				}
			}
		}
	}
	JOINT BoyFacialAnim_Joint
	{
		OFFSET 1.000000 -82.208099 -1.550900
		CHANNELS 3 Xrotation Yrotation Zrotation
		End Site
		{
			OFFSET 0.000000 30.012791 0.000000
		}
	}
}
MOTION
Frames: 4
Frame Time: 0.033333
-0.671230 69.022324 0.667164 0.339939 -28.683748 6.319041 -0.000000 0.000002 0.000000 11.792737 5.896679 2.975918 36.463183 -8.530386 -1.208061 -42.608441 -8.926101 -2.146195 0.000000 0.000003 -0.000000 0.000000 0.000003 -0.000000 0.000001 0.000001 -0.000002 -62.832775 -22.044953 -13.353733 47.789871 8.783341 -10.074709 13.075839 26.636346 -7.836828 0.000000 0.000002 0.000000 0.000000 0.000002 0.000000 -0.000001 -0.000000 -0.000001 14.658672 -4.549010 1.605321 6.060951 -0.559078 3.030117 6.085666 -0.503102 2.989446 -5.483771 4.321524 2.474439 -18.110448 28.209612 -12.379236 0.000000 -0.000000 -0.000000 0.000000 -0.000000 -0.000000 0.000000 -0.000000 -0.000000 0.901731 -10.161931 3.354423 43.904251 -34.746023 -80.746701 -0.000014 -58.055290 -0.000000 -10.130623 5.388050 4.231402 -1.644242 9.660984 7.037517 4.192152 10.944132 0.979239 -0.000002 0.000003 0.000002 0.034444 0.689311 -5.721573 0.161796 1.486793 -12.419925 -0.000001 -0.000001 -0.000004 0.059357 0.904040 -7.513217 0.412975 2.352995 -19.906764 -0.000002 0.000001 -0.000003 0.101630 1.181057 -9.836198 0.879648 3.372506 -29.229678 -0.000000 0.000000 -0.000000 0.956651 5.381506 -11.297334 1.388741 0.066175 -37.179906 0.000000 0.000002 -0.000003 0.000000 0.000000 0.000001 -1.089486 -14.110087 -0.471695 50.701109 -18.247634 64.591207 0.000021 70.778976 -0.000008 -11.236588 -3.685845 -6.140740 -1.938399 -8.842740 -7.409057 4.880749 -11.275141 -0.416129 -0.000003 -0.000005 -0.000002 0.000194 -0.053066 0.435414 0.158674 -1.479861 12.238805 -0.000001 -0.000003 0.000005 0.017558 -0.494781 4.063457 0.263467 -1.899574 15.792060 0.000002 0.000002 -0.000004 0.078551 -1.044361 8.602807 0.434686 -2.424255 20.328335 0.000005 -0.000001 0.000002 0.160684 -1.489140 12.316631 0.599316 -2.828764 23.919394 -0.000004 -0.000000 0.000002 0.000001 0.000001 -0.000001 0.000001 0.000000 -0.000001 0.000001 0.000000 -0.000001 0.000001 0.000000 -0.000001 0.000001 0.000000 -0.000001 0.000001 0.000000 0.000001 -0.000001 0.000000 -0.000000 0.000001 0.000000 -0.000001 0.000001 0.000000 0.000001 -0.000001 0.000000 -0.000000 0.000001 0.000000 -0.000001 0.000001 0.000000 -0.000001 -0.000000 0.000002 0.000000 
0.240917 68.491966 0.161661 0.279340 -28.966255 5.764130 -0.000000 -0.000000 -0.000000 11.519096 4.887868 2.357138 37.370758 -8.134877 -1.408651 -46.031551 -7.080830 -0.888804 -0.000000 -0.000001 0.000000 -0.000000 -0.000001 0.000000 0.000002 0.000001 -0.000002 -63.173833 -20.552415 -12.318641 50.664257 9.213531 -10.082214 10.817773 22.976089 -6.693249 0.000000 0.000000 -0.000000 0.000000 0.000000 -0.000000 -0.000000 -0.000003 -0.000000 15.784834 -4.672029 2.424191 5.621834 -0.608633 2.977811 5.646187 -0.550237 2.941538 -5.545658 4.322733 2.933060 -18.291259 28.891044 -12.932106 -0.000000 0.000001 -0.000000 -0.000000 0.000001 -0.000000 -0.000000 0.000001 -0.000000 1.225727 -9.842681 4.263889 42.563434 -31.188232 -79.087273 0.000027 -55.690818 0.000033 -9.460019 3.692478 4.256283 -1.605136 7.975887 6.782470 4.121724 10.098573 0.914804 0.000001 -0.000002 0.000001 0.013834 0.437361 -3.626658 0.235368 1.788336 -14.994202 -0.000006 0.000000 -0.000002 0.040314 0.745628 -6.190987 0.440370 2.427224 -20.563476 -0.000001 -0.000002 0.000003 0.094076 1.136642 -9.462839 0.783262 3.194476 -27.547114 0.000000 -0.000001 -0.000001 0.993443 5.421734 -11.688178 1.139041 -0.285261 -33.607461 -0.000001 -0.000000 -0.000000 -0.000002 0.000001 0.000000 -0.770029 -14.524174 1.377609 46.560392 -16.324938 63.691746 -0.000012 67.844447 0.000028 -10.688522 -3.247274 -6.199974 -1.942817 -9.022609 -7.437540 4.888947 -11.365436 -0.422504 0.000001 0.000000 0.000005 0.000610 0.092134 -0.756075 0.201307 -1.664236 13.792764 -0.000003 0.000000 0.000002 0.014929 -0.456287 3.746941 0.295705 -2.009997 16.737020 0.000004 0.000000 -0.000000 0.093163 -1.136709 9.370408 0.444049 -2.449357 20.548339 0.000002 -0.000001 0.000002 0.206277 -1.684367 13.963098 0.580229 -2.785393 23.529677 -0.000001 -0.000000 0.000000 0.000000 -0.000003 0.000000 0.000003 -0.000003 0.000002 0.000003 -0.000003 0.000002 0.000003 -0.000003 0.000002 0.000003 -0.000003 0.000002 0.000003 -0.000003 0.000001 0.000001 -0.000002 0.000002 0.000003 -0.000003 0.000002 0.000003 -0.000003 0.000001 0.000001 -0.000002 0.000002 0.000002 -0.000001 0.000001 0.000002 -0.000001 0.000001 -0.000000 -0.000000 -0.000000 
0.418846 68.977051 0.048002 0.784620 -28.727386 5.646992 -0.000000 -0.000002 0.000000 9.945027 4.308083 2.333620 38.437487 -8.119936 -1.081424 -44.375278 -6.884651 -0.702507 0.000000 0.000000 0.000000 0.000000 0.000000 0.000000 0.000001 0.000001 -0.000001 -62.178853 -20.843453 -11.421628 53.459918 9.575454 -10.074199 6.968490 20.189573 -7.015526 -0.000000 -0.000002 -0.000000 -0.000000 -0.000002 -0.000000 0.000000 -0.000004 0.000001 16.432926 -4.931517 3.146032 4.890602 -0.682050 3.125329 4.917644 -0.617578 3.094957 -4.669329 4.292666 2.728531 -18.409626 28.870233 -13.422847 -0.000000 -0.000000 0.000000 -0.000000 -0.000000 0.000000 -0.000000 -0.000000 0.000000 1.290611 -9.857317 2.081722 40.502636 -23.797229 -77.565281 -0.000009 -55.166229 -0.000013 -9.018099 3.679732 4.429261 -1.604854 7.961860 6.780377 4.121144 10.091545 0.914249 0.000002 -0.000003 -0.000003 0.000440 0.078730 -0.652463 0.266202 1.899681 -15.952496 0.000001 0.000001 -0.000002 0.028357 0.625590 -5.191228 0.438907 2.423343 -20.529033 0.000004 -0.000001 0.000000 0.124908 1.308150 -10.907551 0.717198 3.064691 -26.337122 0.000000 -0.000000 0.000001 1.329376 5.765332 -15.133747 0.995531 -0.510546 -31.394862 -0.000000 -0.000001 -0.000000 0.000000 0.000000 0.000000 -0.374549 -13.999935 3.339008 42.945863 -14.062075 62.826689 0.000029 65.611275 -0.000016 -10.231225 -3.806633 -6.226256 -1.941965 -8.988117 -7.432057 4.887369 -11.348095 -0.421289 -0.000001 0.000001 0.000001 0.005019 0.264636 -2.171916 0.214005 -1.715149 14.223668 -0.000002 0.000002 0.000004 0.013233 -0.429709 3.528308 0.307120 -2.047536 17.059357 0.000001 0.000001 0.000002 0.119972 -1.288683 10.637187 0.453425 -2.474214 20.766896 -0.000000 -0.000001 0.000004 0.285243 -1.974859 16.435954 0.584915 -2.796131 23.626036 -0.000000 -0.000000 0.000000 0.000001 0.000000 -0.000001 0.000001 -0.000000 -0.000002 0.000001 -0.000000 -0.000002 0.000001 -0.000000 -0.000002 0.000001 -0.000000 -0.000002 0.000001 -0.000000 -0.000000 -0.000000 -0.000000 -0.000000 0.000001 -0.000000 -0.000002 0.000001 -0.000000 -0.000000 -0.000000 -0.000000 -0.000000 -0.000000 0.000002 -0.000001 -0.000000 0.000002 -0.000001 -0.000000 -0.000002 0.000000 
-0.156981 70.432159 0.284624 1.758488 -27.764039 5.988462 -0.000000 -0.000001 0.000000 6.421197 4.524332 2.867273 40.780000 -7.986779 -0.329657 -37.521333 -8.296252 -0.792688 0.000001 -0.000002 0.000001 0.000001 -0.000002 0.000000 -0.000002 -0.000002 0.000002 -59.419866 -22.852483 -10.896273 55.074855 9.993475 -10.010836 2.180989 19.067742 -8.521517 0.000000 -0.000000 0.000000 0.000000 -0.000000 0.000000 -0.000001 -0.000000 -0.000000 16.409820 -5.324677 3.760572 4.249374 -0.760126 3.381410 4.280729 -0.691109 3.354498 -3.384980 4.255151 1.799389 -18.476000 28.029860 -13.632895 0.000000 0.000000 -0.000000 0.000000 0.000000 -0.000000 0.000000 0.000000 -0.000000 0.978206 -9.496047 -2.789213 36.554144 -14.160490 -75.396184 -0.000003 -56.785520 -0.000013 -8.870828 5.208159 4.647749 -1.639542 9.474460 7.009167 4.184390 10.850549 0.972161 -0.000002 -0.000002 0.000000 0.007189 -0.315426 2.614687 0.246006 1.827609 -15.331693 -0.000001 -0.000001 -0.000002 0.022398 0.556089 -4.612963 0.418438 2.367994 -20.039309 -0.000000 -0.000001 -0.000002 0.195691 1.633118 -13.665422 0.703098 3.036070 -26.072159 -0.000002 -0.000001 0.000001 1.907081 6.270137 -20.639968 0.984650 -0.528434 -31.221618 -0.000003 0.000000 0.000001 -0.000000 0.000000 0.000000 0.003320 -12.734789 5.365228 39.404225 -10.421784 61.612876 0.000022 64.368222 -0.000032 -9.857296 -5.392469 -6.140442 -1.934501 -8.680753 -7.383458 4.873340 -11.193797 -0.410409 0.000002 -0.000002 -0.000001 0.012864 0.423808 -3.479845 0.200807 -1.662202 13.775597 -0.000006 -0.000005 0.000001 0.012411 -0.416169 3.417096 0.304166 -2.037882 16.976404 -0.000003 0.000000 0.000001 0.152853 -1.452850 12.011867 0.470703 -2.519237 21.163362 0.000001 0.000000 0.000004 0.380988 -2.274205 19.018486 0.621733 -2.878746 24.369857 -0.000001 -0.000000 -0.000002 0.000002 -0.000000 -0.000000 -0.000002 0.000001 -0.000001 -0.000002 0.000001 -0.000001 -0.000002 0.000001 -0.000001 -0.000002 0.000001 -0.000001 -0.000002 0.000001 -0.000001 -0.000001 -0.000000 0.000003 -0.000002 0.000001 -0.000001 -0.000002 0.000001 -0.000001 -0.000001 -0.000000 0.000003 0.000002 0.000003 -0.000002 0.000002 0.000003 -0.000002 -0.000000 -0.000001 0.000000 
